<?xml version="1.0" encoding="utf-8"?>
<!-- Generator: Adobe Illustrator 16.0.0, SVG Export Plug-In . SVG Version: 6.00 Build 0)  -->
<!DOCTYPE svg PUBLIC "-//W3C//DTD SVG 1.1//EN" "http://www.w3.org/Graphics/SVG/1.1/DTD/svg11.dtd">
<svg version="1.1" id="Layer_1" xmlns="http://www.w3.org/2000/svg" xmlns:xlink="http://www.w3.org/1999/xlink" x="0px" y="0px"
	 width="95px" height="27px" viewBox="0 0 95 27" enable-background="new 0 0 95 27" xml:space="preserve">
<g>
	<defs>
		<filter id="Adobe_OpacityMaskFilter" filterUnits="userSpaceOnUse" x="0" y="0.19" width="4.99" height="25.81">
			<feColorMatrix  type="matrix" values="1 0 0 0 0  0 1 0 0 0  0 0 1 0 0  0 0 0 1 0"/>
		</filter>
	</defs>
	<mask maskUnits="userSpaceOnUse" x="0" y="0.19" width="4.99" height="25.81" id="b">
		<g filter="url(#Adobe_OpacityMaskFilter)">
			<path id="a" fill="#FFFFFF" d="M0,0.19h4.99V26H0V0.19z"/>
		</g>
	</mask>
	<path mask="url(#b)" fill="#FF0000" d="M4.165,26h-3.34C0.275,26,0,25.743,0,25.23V0.96c0-0.514,0.275-0.77,0.825-0.77h3.34
		c0.55,0,0.825,0.256,0.825,0.77v24.269C4.99,25.743,4.715,26,4.165,26"/>
	<g transform="translate(9)">
		<defs>
			<filter id="Adobe_OpacityMaskFilter_1_" filterUnits="userSpaceOnUse" x="0.135" y="0.194" width="4.782" height="4.782">
				<feColorMatrix  type="matrix" values="1 0 0 0 0  0 1 0 0 0  0 0 1 0 0  0 0 0 1 0"/>
			</filter>
		</defs>
		<mask maskUnits="userSpaceOnUse" x="0.135" y="0.194" width="4.782" height="4.782" id="d">
			<g filter="url(#Adobe_OpacityMaskFilter_1_)">
				<path id="c" fill="#FFFFFF" d="M0.135,0.194h4.782v4.782H0.135V0.194z"/>
			</g>
		</mask>
		<path mask="url(#d)" fill="#FF0000" d="M0.135,4.223V0.947c0-0.502,0.25-0.753,0.752-0.753h3.277c0.502,0,0.753,0.239,0.753,0.715
			v3.314c0,0.503-0.251,0.753-0.753,0.753H0.888C0.385,4.976,0.135,4.726,0.135,4.223"/>
	</g>
	<g transform="translate(9 7)">
		<defs>
			<filter id="Adobe_OpacityMaskFilter_2_" filterUnits="userSpaceOnUse" x="0.135" y="0.166" width="4.782" height="18.834">
				<feColorMatrix  type="matrix" values="1 0 0 0 0  0 1 0 0 0  0 0 1 0 0  0 0 0 1 0"/>
			</filter>
		</defs>
		<mask maskUnits="userSpaceOnUse" x="0.135" y="0.166" width="4.782" height="18.834" id="f">
			<g filter="url(#Adobe_OpacityMaskFilter_2_)">
				<path id="e" fill="#FFFFFF" d="M0.135,0.166h4.782V19H0.135V0.166z"/>
			</g>
		</mask>
		<path mask="url(#f)" fill="#FF0000" d="M0.135,18.225V0.942c0-0.517,0.25-0.776,0.752-0.776h3.239
			c0.527,0,0.791,0.259,0.791,0.776v17.283c0,0.319-0.056,0.529-0.17,0.627C4.635,18.951,4.44,19,4.164,19H0.925
			C0.398,19,0.135,18.741,0.135,18.225"/>
	</g>
	<g transform="translate(62)">
		<defs>
			<filter id="Adobe_OpacityMaskFilter_3_" filterUnits="userSpaceOnUse" x="0.105" y="0.19" width="4.781" height="25.81">
				<feColorMatrix  type="matrix" values="1 0 0 0 0  0 1 0 0 0  0 0 1 0 0  0 0 0 1 0"/>
			</filter>
		</defs>
		<mask maskUnits="userSpaceOnUse" x="0.105" y="0.19" width="4.781" height="25.81" id="h">
			<g filter="url(#Adobe_OpacityMaskFilter_3_)">
				<path id="g" fill="#FFFFFF" d="M0.104,0.19h4.783V26H0.104V0.19z"/>
			</g>
		</mask>
		<path mask="url(#h)" fill="#FF0000" d="M4.096,26H0.895c-0.527,0-0.789-0.257-0.789-0.771V0.96c0-0.514,0.262-0.77,0.789-0.77
			h3.201c0.527,0,0.791,0.256,0.791,0.77v24.269C4.887,25.743,4.623,26,4.096,26"/>
	</g>
	<g transform="translate(71)">
		<defs>
			<filter id="Adobe_OpacityMaskFilter_4_" filterUnits="userSpaceOnUse" x="0.029" y="0.194" width="4.783" height="4.782">
				<feColorMatrix  type="matrix" values="1 0 0 0 0  0 1 0 0 0  0 0 1 0 0  0 0 0 1 0"/>
			</filter>
		</defs>
		<mask maskUnits="userSpaceOnUse" x="0.029" y="0.194" width="4.783" height="4.782" id="j">
			<g filter="url(#Adobe_OpacityMaskFilter_4_)">
				<path id="i" fill="#FFFFFF" d="M0.029,0.194h4.783v4.782H0.029V0.194z"/>
			</g>
		</mask>
		<path mask="url(#j)" fill="#FF0000" d="M0.029,4.223V0.947c0-0.502,0.25-0.753,0.755-0.753h3.276c0.5,0,0.752,0.239,0.752,0.715
			v3.314c0,0.503-0.25,0.753-0.752,0.753H0.783c-0.502,0-0.752-0.25-0.752-0.753"/>
	</g>
	<g transform="translate(71 7)">
		<defs>
			<filter id="Adobe_OpacityMaskFilter_5_" filterUnits="userSpaceOnUse" x="0.029" y="0.166" width="4.783" height="18.834">
				<feColorMatrix  type="matrix" values="1 0 0 0 0  0 1 0 0 0  0 0 1 0 0  0 0 0 1 0"/>
			</filter>
		</defs>
		<mask maskUnits="userSpaceOnUse" x="0.029" y="0.166" width="4.783" height="18.834" id="l">
			<g filter="url(#Adobe_OpacityMaskFilter_5_)">
				<path id="k" fill="#FFFFFF" d="M0.029,0.166h4.783V19H0.029V0.166z"/>
			</g>
		</mask>
		<path mask="url(#l)" fill="#FF0000" d="M0.029,18.225V0.942c0-0.517,0.25-0.776,0.755-0.776h3.239
			c0.526,0,0.789,0.259,0.789,0.776v17.283c0,0.319-0.055,0.529-0.168,0.627C4.532,18.951,4.336,19,4.061,19H0.82
			C0.293,19,0.029,18.741,0.029,18.225"/>
	</g>
	<g transform="translate(16 2)">
		<defs>
			<filter id="Adobe_OpacityMaskFilter_6_" filterUnits="userSpaceOnUse" x="0.071" y="0.178" width="11.764" height="23.822">
				<feColorMatrix  type="matrix" values="1 0 0 0 0  0 1 0 0 0  0 0 1 0 0  0 0 0 1 0"/>
			</filter>
		</defs>
		<mask maskUnits="userSpaceOnUse" x="0.071" y="0.178" width="11.764" height="23.822" id="n">
			<g filter="url(#Adobe_OpacityMaskFilter_6_)">
				<path id="m" fill="#FFFFFF" d="M0.07,0.178h11.765V24H0.07V0.178z"/>
			</g>
		</mask>
		<path mask="url(#n)" fill="#FF0000" d="M2.313,9.041h-1.47c-0.294,0-0.496-0.05-0.607-0.15c-0.11-0.099-0.165-0.299-0.165-0.598
			v-2.58c0-0.524,0.257-0.786,0.772-0.786h1.47c0.27,0,0.405-0.136,0.405-0.411V0.963c0-0.523,0.27-0.785,0.809-0.785h3.088
			c0.514,0,0.772,0.262,0.772,0.785v3.553c0,0.275,0.147,0.411,0.44,0.411h2.868c0.515,0,0.773,0.262,0.773,0.786v2.58
			c0,0.275-0.055,0.468-0.166,0.58c-0.11,0.112-0.312,0.168-0.607,0.168H7.828c-0.294,0-0.441,0.138-0.441,0.412v8.264
			c0,0.774,0.17,1.328,0.514,1.665c0.343,0.337,0.907,0.505,1.691,0.505h1.471c0.514,0,0.772,0.262,0.772,0.785v2.58
			c0,0.275-0.055,0.467-0.166,0.58C11.559,23.943,11.357,24,11.063,24H8.82c-1.936,0-3.437-0.523-4.503-1.57
			c-1.066-1.048-1.6-2.543-1.6-4.488V9.452C2.717,9.179,2.582,9.042,2.313,9.041"/>
	</g>
	<path fill="#FF0000" d="M49.287,10.817c0.275,0,0.413-0.138,0.413-0.414v-2.3c0-1.959,0.544-3.466,1.631-4.52
		C52.418,2.527,53.95,2,55.925,2h2.288c0.301,0,0.506,0.057,0.618,0.17C58.943,2.283,59,2.477,59,2.754v2.6
		c0,0.527-0.264,0.79-0.787,0.79h-1.5c-0.8,0-1.376,0.17-1.725,0.509c-0.352,0.339-0.526,0.897-0.526,1.676v2.073
		c0,0.277,0.149,0.415,0.45,0.415h2.926c0.301,0,0.506,0.057,0.619,0.17c0.111,0.113,0.169,0.307,0.169,0.584v2.6
		c0,0.527-0.263,0.79-0.788,0.79h-2.925c-0.3,0-0.45,0.139-0.45,0.415v9.833c0,0.527-0.263,0.791-0.788,0.791h-3.149
		c-0.551,0-0.825-0.264-0.825-0.791v-9.833c0-0.276-0.138-0.414-0.413-0.414h-1.5c-0.524,0-0.787-0.264-0.787-0.792v-2.6
		c0-0.3,0.056-0.502,0.169-0.602c0.112-0.1,0.319-0.15,0.618-0.15L49.287,10.817L49.287,10.817z"/>
	<g transform="translate(31 7)">
		<defs>
			<filter id="Adobe_OpacityMaskFilter_7_" filterUnits="userSpaceOnUse" x="0.077" y="0.167" width="14.785" height="18.833">
				<feColorMatrix  type="matrix" values="1 0 0 0 0  0 1 0 0 0  0 0 1 0 0  0 0 0 1 0"/>
			</filter>
		</defs>
		<mask maskUnits="userSpaceOnUse" x="0.077" y="0.167" width="14.785" height="18.833" id="p">
			<g filter="url(#Adobe_OpacityMaskFilter_7_)">
				<path id="o" fill="#FFFFFF" d="M0.077,0.167h14.785V19H0.077V0.167z"/>
			</g>
		</mask>
		<path mask="url(#p)" fill="#FF0000" d="M4.631,6.333c0-0.787,0.157-1.34,0.47-1.66c0.313-0.32,0.855-0.481,1.627-0.481h1.519
			c0.77,0,1.313,0.16,1.626,0.48c0.313,0.32,0.47,0.874,0.47,1.661v1.772c0,0.272-0.133,0.408-0.398,0.408H5.03
			c-0.265,0-0.397-0.136-0.398-0.408L4.631,6.333L4.631,6.333z M5.029,11.652h9.074c0.506,0,0.759-0.26,0.759-0.776v-4.69
			c0-1.944-0.518-3.435-1.554-4.468C12.27,0.684,10.8,0.167,8.898,0.167H6.04c-1.904,0-3.374,0.517-4.41,1.55
			c-1.036,1.035-1.553,2.526-1.553,4.47v6.795c0,1.944,0.517,3.434,1.554,4.469C2.667,18.482,4.137,19,6.041,19h7.99
			c0.289,0,0.488-0.055,0.596-0.167c0.108-0.11,0.163-0.3,0.163-0.572v-2.437c0-0.541-0.254-0.813-0.76-0.813H6.729
			c-0.772,0-1.32-0.166-1.645-0.498s-0.488-0.88-0.488-1.644v-0.813C4.596,11.787,4.741,11.652,5.029,11.652L5.029,11.652z"/>
	</g>
	<g transform="translate(79 7)">
		<defs>
			<filter id="Adobe_OpacityMaskFilter_8_" filterUnits="userSpaceOnUse" x="0.083" y="0.166" width="15.822" height="18.835">
				<feColorMatrix  type="matrix" values="1 0 0 0 0  0 1 0 0 0  0 0 1 0 0  0 0 0 1 0"/>
			</filter>
		</defs>
		<mask maskUnits="userSpaceOnUse" x="0.083" y="0.166" width="15.822" height="18.835" id="r">
			<g filter="url(#Adobe_OpacityMaskFilter_8_)">
				<path id="q" fill="#FFFFFF" d="M0.083,0.166h15.821V19H0.083V0.166z"/>
			</g>
		</mask>
		<path mask="url(#r)" fill="#FF0000" d="M4.488,19H0.743c-0.644,0-0.816-0.259-0.521-0.775L4.895,9.4l-4.67-8.458
			c-0.248-0.517-0.101-0.776,0.444-0.776H4.45c0.593,0,0.976,0.26,1.149,0.776l2.336,5.613h0.147l2.04-5.613
			c0.172-0.517,0.557-0.776,1.148-0.776h3.709c0.642,0,0.803,0.26,0.481,0.776L11.014,9.4l4.782,8.824
			c0.124,0.223,0.142,0.406,0.056,0.555c-0.086,0.147-0.254,0.222-0.5,0.222h-3.819c-0.519,0-0.89-0.259-1.112-0.776l-2.336-5.649
			H7.936L5.6,18.225C5.427,18.741,5.057,19,4.488,19"/>
	</g>
</g>
</svg>
